<?xml version="1.0" encoding="UTF-8" standalone="no"?>
<svg
   id="Layer_1"
   data-name="Layer 1"
   viewBox="0 0 24 24"
   width="512"
   height="512"
   version="1.1"
   sodipodi:docname="share-square.svg"
   inkscape:version="1.4.3 (0d15f75042, 2025-12-25)"
   xmlns:inkscape="http://www.inkscape.org/namespaces/inkscape"
   xmlns:sodipodi="http://sodipodi.sourceforge.net/DTD/sodipodi-0.dtd"
   xmlns="http://www.w3.org/2000/svg"
   xmlns:svg="http://www.w3.org/2000/svg">
  <defs
     id="defs1" />
  <sodipodi:namedview
     id="namedview1"
     pagecolor="#ffffff"
     bordercolor="#000000"
     borderopacity="0.25"
     inkscape:showpageshadow="2"
     inkscape:pageopacity="0.0"
     inkscape:pagecheckerboard="0"
     inkscape:deskcolor="#d1d1d1"
     inkscape:zoom="0.87792969"
     inkscape:cx="209.01446"
     inkscape:cy="355.95106"
     inkscape:window-width="1920"
     inkscape:window-height="1026"
     inkscape:window-x="0"
     inkscape:window-y="26"
     inkscape:window-maximized="1"
     inkscape:current-layer="Layer_1" />
  <path
     d="M18,18.5c0,3.03-2.47,5.5-5.5,5.5H5.5C2.47,24,0,21.53,0,18.5v-7C0,8.47,2.47,6,5.5,6c.83,0,1.5,.67,1.5,1.5s-.67,1.5-1.5,1.5c-1.38,0-2.5,1.12-2.5,2.5v7c0,1.38,1.12,2.5,2.5,2.5h7c1.38,0,2.5-1.12,2.5-2.5,0-.83,.67-1.5,1.5-1.5s1.5,.67,1.5,1.5Zm5-13.45L18.58,.46c-.58-.6-1.52-.62-2.12-.04-.6,.58-.62,1.52-.04,2.12l3.33,3.46h-6.25c-3.03,0-5.5,2.47-5.5,5.5v5c0,.83,.67,1.5,1.5,1.5s1.5-.67,1.5-1.5v-5c0-1.38,1.12-2.5,2.5-2.5h6.25l-3.33,3.46c-.57,.6-.56,1.55,.04,2.12,.29,.28,.67,.42,1.04,.42,.39,0,.79-.15,1.08-.46l4.39-4.56c1.37-1.36,1.37-3.59,.02-4.93Z"
     id="path1"
     style="fill:#e6efff;fill-opacity:1" />
</svg>
